# xmcd
#
# Track frame offsets: 
#        150
#        9267
#        23089
#        30041
#        39762
#        50163
#        61010
#        68619
#        80215
#        89453
#        97387
#        108421
#        116919
#        129784
#        143541
#        156672
#        167752
#        179611
#        192442
#        203596
#        217785
#
# Disc length: 3090 seconds
#
# Revision: 0
# Processed by: cddbd v1.5.2PL0 Copyright (c) Steve Scherf et al.
# Submitted via: ExactAudioCopy v1.1
#
DISCID=170c1015
DTITLE=Merle Travis - CD1_3 Classic Albums +Singles 1949-56
DYEAR=2016
DGENRE=Country
TTITLE0=Blue smoke
TTITLE1=Black diamond blues
TTITLE2=On a bicycle built for two
TTITLE3=Saturday night shuffle
TTITLE4=Bugle call rag
TTITLE5=Tuck me to sleep
TTITLE6=Walkin' the strings
TTITLE7=Memphis blues
TTITLE8=Shiek of araby
TTITLE9=Blue bell
TTITLE10=The waltz you saved for me
TTITLE11=Rockabye rock
TTITLE12=Get Along Blues
TTITLE13=God Put A Rainbow On The Clouds
TTITLE14=It May Be Too Late
TTITLE15=Philososphy
TTITLE16=Blues Stay Away From Me
TTITLE17=Petticoat Fever
TTITLE18=I'm Picking Up The Pieces of My Heart
TTITLE19=Start Even
TTITLE20=I Got A Mean Old Woman
EXTD=
EXTT0=
EXTT1=
EXTT2=
EXTT3=
EXTT4=
EXTT5=
EXTT6=
EXTT7=
EXTT8=
EXTT9=
EXTT10=
EXTT11=
EXTT12=
EXTT13=
EXTT14=
EXTT15=
EXTT16=
EXTT17=
EXTT18=
EXTT19=
EXTT20=
PLAYORDER=
